<svg fill="#ffffff" width="800px" height="800px" viewBox="0 0 24 24" xmlns="http://www.w3.org/2000/svg" id="filter-alt" class="icon glyph" data-originalfillcolor="#000000" transform="rotate(0) scale(1, 1)"><path d="M12,9a3.66,3.66,0,0,0,1-.13V21a1,1,0,0,1-2,0V8.87A3.66,3.66,0,0,0,12,9Z"/><path d="M19,16a3.66,3.66,0,0,0,1-.13V21a1,1,0,0,1-2,0V15.87A3.66,3.66,0,0,0,19,16Z"/><path d="M20,3V8.13a3.91,3.91,0,0,0-2,0V3a1,1,0,0,1,2,0Z"/><path d="M6,3V15.13A3.66,3.66,0,0,0,5,15a3.66,3.66,0,0,0-1,.13V3A1,1,0,0,1,6,3Z"/><path d="M8,19a3,3,0,1,1-4-2.82,2.87,2.87,0,0,1,2,0A3,3,0,0,1,8,19Z"/><path d="M15,5a3,3,0,0,1-2,2.82,2.87,2.87,0,0,1-2,0A3,3,0,1,1,15,5Z"/><path d="M22,12a3,3,0,0,1-2,2.82,2.87,2.87,0,0,1-2,0,3,3,0,0,1,0-5.64,2.87,2.87,0,0,1,2,0A3,3,0,0,1,22,12Z"/></svg>