<!DOCTYPE svg PUBLIC "-//W3C//DTD SVG 1.1//EN" "http://www.w3.org/Graphics/SVG/1.1/DTD/svg11.dtd">
<!-- Uploaded to: SVG Repo, www.svgrepo.com, Transformed by: SVG Repo Mixer Tools -->
<svg fill="#ffffff" width="800px" height="800px" viewBox="0 0 96 96" xmlns="http://www.w3.org/2000/svg" stroke="#ffffff">
<g id="SVGRepo_bgCarrier" stroke-width="0"/>
<g id="SVGRepo_tracerCarrier" stroke-linecap="round" stroke-linejoin="round"/>
<g id="SVGRepo_iconCarrier">
<title/>
<path d="M78,36H72V24a24,24,0,0,0-48,0V36H18a5.9966,5.9966,0,0,0-6,6V90a5.9966,5.9966,0,0,0,6,6H78a5.9966,5.9966,0,0,0,6-6V42A5.9966,5.9966,0,0,0,78,36ZM36,24a12,12,0,0,1,24,0V36H36ZM72,84H24V48H72Z"/>
</g>
</svg>