<svg version="1.2" preserveAspectRatio="xMidYMid meet" viewBox="17.1 126.59999696160001 345.75 110.249997354" zoomAndPan="magnify" xmlns:xlink="http://www.w3.org/1999/xlink" xmlns="http://www.w3.org/2000/svg" style="max-height: 500px" width="345.75" height="110.249997354"><defs><clipPath id="f3f896d440"><path d="M 45 231 L 50 231 L 50 246.238281 L 45 246.238281 Z M 45 231"/></clipPath><clipPath id="070fba4a48"><path d="M 52 232 L 64 232 L 64 246.238281 L 52 246.238281 Z M 52 232"/></clipPath><clipPath id="66f9a3e642"><path d="M 38 228 L 50 228 L 50 246.238281 L 38 246.238281 Z M 38 228"/></clipPath><clipPath id="9328b85519"><path d="M 34 128.542969 L 77 128.542969 L 77 147 L 34 147 Z M 34 128.542969"/></clipPath><clipPath id="f829291adf"><path d="M 2.519531 174 L 64 174 L 64 246.238281 L 2.519531 246.238281 Z M 2.519531 174"/></clipPath></defs><g id="e766bd2e2a"><path transform="matrix(0,1.079754,-1.079754,0,95.681168,122.394162)" d="M 0.499587 0.500616 L 120.101432 0.500616" style="fill:none;stroke-width:1;stroke-linecap:round;stroke-linejoin:miter;stroke:#ffffff;stroke-opacity:1;stroke-miterlimit:4;"/><g clip-path="url(#f3f896d440)" clip-rule="nonzero"><path d="M 47.316406 231.476562 C 48.046875 231.617188 48.796875 231.738281 49.550781 231.855469 L 49.550781 246.164062 C 48.796875 246.117188 48.070312 246.070312 47.316406 246 C 46.820312 245.953125 46.304688 245.90625 45.808594 245.835938 L 45.808594 231.171875 C 46.304688 231.289062 46.796875 231.382812 47.316406 231.476562 Z M 47.316406 231.476562" style="stroke:none;fill-rule:nonzero;fill:#d9d9d9;fill-opacity:1;"/></g><path d="M 49.527344 167.453125 L 49.527344 229.054688 C 49.082031 228.960938 48.632812 228.863281 48.210938 228.769531 C 47.90625 228.699219 47.597656 228.628906 47.316406 228.558594 C 47.105469 228.511719 46.914062 228.464844 46.726562 228.417969 C 46.421875 228.347656 46.117188 228.253906 45.832031 228.183594 L 45.832031 167.453125 Z M 49.527344 167.453125" style="stroke:none;fill-rule:nonzero;fill:#d9d9d9;fill-opacity:1;"/><g clip-path="url(#070fba4a48)" clip-rule="nonzero"><path d="M 63.980469 239.175781 C 63.980469 240.375 63.699219 241.574219 63.109375 242.636719 C 62.191406 244.304688 60.496094 245.578125 58.027344 245.882812 C 56.261719 246.09375 54.472656 246.214844 52.636719 246.238281 C 52.589844 246.238281 52.566406 246.238281 52.519531 246.238281 L 52.519531 232.183594 C 53.859375 232.300781 55.203125 232.347656 56.566406 232.347656 C 56.753906 232.347656 56.941406 232.347656 57.15625 232.347656 C 61.628906 232.300781 63.980469 235.738281 63.980469 239.175781 Z M 63.980469 239.175781" style="stroke:none;fill-rule:nonzero;fill:#d9d9d9;fill-opacity:1;"/></g><path d="M 65.488281 144.265625 L 65.488281 146.785156 L 63.980469 146.785156 L 63.980469 231.40625 C 62.875 230.488281 61.390625 229.902344 59.53125 229.925781 C 59.34375 229.925781 59.15625 229.925781 58.945312 229.925781 C 57.578125 229.925781 56.238281 229.878906 54.894531 229.757812 C 54.09375 229.6875 53.292969 229.617188 52.496094 229.5 L 52.496094 165.96875 C 52.496094 165.144531 51.8125 164.464844 50.988281 164.464844 L 47.269531 164.464844 L 47.269531 146.855469 L 45.761719 146.855469 L 45.761719 144.265625 Z M 65.488281 144.265625" style="stroke:none;fill-rule:nonzero;fill:#d9d9d9;fill-opacity:1;"/><path d="M 65.488281 142.785156 L 45.808594 142.785156 C 44.984375 142.785156 44.304688 143.464844 44.304688 144.289062 L 44.304688 146.878906 L 47.316406 146.878906 L 47.316406 145.796875 L 64.003906 145.796875 L 64.003906 146.808594 L 67.019531 146.808594 L 67.019531 144.265625 C 66.996094 143.441406 66.3125 142.785156 65.488281 142.785156 Z M 44.304688 167.453125 L 44.304688 227.734375 C 44.796875 227.875 45.292969 228.042969 45.808594 228.183594 C 46.117188 228.277344 46.398438 228.347656 46.703125 228.417969 C 46.890625 228.464844 47.105469 228.511719 47.292969 228.558594 L 47.292969 167.453125 Z M 45.808594 231.171875 C 45.316406 231.054688 44.796875 230.9375 44.304688 230.820312 L 44.304688 245.625 C 44.796875 245.695312 45.292969 245.765625 45.808594 245.835938 C 46.304688 245.90625 46.796875 245.953125 47.316406 246 L 47.316406 231.476562 C 46.796875 231.382812 46.304688 231.289062 45.808594 231.171875 Z M 45.808594 231.171875" style="stroke:none;fill-rule:nonzero;fill:#d9d9d9;fill-opacity:1;"/><g clip-path="url(#66f9a3e642)" clip-rule="nonzero"><path d="M 47.316406 231.476562 C 48.046875 231.617188 48.796875 231.738281 49.550781 231.855469 L 49.550781 246.164062 C 48.796875 246.117188 48.070312 246.070312 47.316406 246 C 46.820312 245.953125 46.304688 245.90625 45.808594 245.835938 C 45.316406 245.765625 44.796875 245.695312 44.304688 245.625 C 42.183594 245.296875 40.089844 244.824219 38.066406 244.210938 L 38.066406 228.769531 C 40.089844 229.59375 42.160156 230.277344 44.304688 230.820312 C 44.796875 230.9375 45.292969 231.078125 45.808594 231.171875 C 46.304688 231.289062 46.796875 231.382812 47.316406 231.476562 Z M 47.316406 231.476562" style="stroke:none;fill-rule:nonzero;fill:#d9d9d9;fill-opacity:1;"/></g><path d="M 49.527344 167.453125 L 49.527344 229.054688 C 49.082031 228.960938 48.632812 228.863281 48.210938 228.769531 C 47.90625 228.699219 47.597656 228.628906 47.316406 228.558594 C 47.105469 228.511719 46.914062 228.464844 46.726562 228.417969 C 46.421875 228.347656 46.117188 228.253906 45.832031 228.183594 C 45.339844 228.042969 44.820312 227.898438 44.328125 227.734375 C 43.03125 227.335938 41.738281 226.863281 40.488281 226.371094 C 39.6875 226.039062 38.890625 225.6875 38.089844 225.335938 L 38.089844 185.4375 C 38.089844 184.613281 37.429688 183.929688 36.582031 183.929688 L 32.863281 183.929688 L 32.863281 167.453125 Z M 49.527344 167.453125" style="stroke:none;fill-rule:nonzero;fill:#d9d9d9;fill-opacity:1;"/><path d="M 32.839844 226.300781 C 33.570312 226.699219 34.324219 227.074219 35.074219 227.453125 L 35.074219 243.222656 C 34.324219 242.941406 33.59375 242.660156 32.839844 242.351562 C 32.34375 242.140625 31.828125 241.929688 31.332031 241.695312 L 31.332031 225.453125 C 31.851562 225.734375 32.34375 226.015625 32.839844 226.300781 Z M 32.839844 226.300781" style="stroke:none;fill-rule:nonzero;fill:#d9d9d9;fill-opacity:1;"/><path d="M 35.074219 186.941406 L 35.074219 223.804688 C 34.628906 223.570312 34.179688 223.308594 33.757812 223.050781 C 33.453125 222.863281 33.144531 222.699219 32.863281 222.507812 C 32.652344 222.390625 32.464844 222.25 32.273438 222.132812 C 31.96875 221.945312 31.664062 221.734375 31.378906 221.542969 L 31.378906 186.941406 Z M 35.074219 186.941406" style="stroke:none;fill-rule:nonzero;fill:#d9d9d9;fill-opacity:1;"/><path d="M 29.851562 186.941406 L 29.851562 220.484375 C 30.34375 220.839844 30.839844 221.191406 31.355469 221.542969 C 31.664062 221.757812 31.945312 221.945312 32.25 222.132812 C 32.441406 222.25 32.652344 222.390625 32.839844 222.507812 L 32.839844 186.941406 Z M 31.355469 225.453125 C 30.863281 225.144531 30.34375 224.839844 29.851562 224.535156 L 29.851562 240.964844 C 30.34375 241.222656 30.839844 241.457031 31.355469 241.695312 C 31.851562 241.929688 32.34375 242.140625 32.863281 242.351562 L 32.863281 226.300781 C 32.34375 226.015625 31.851562 225.734375 31.355469 225.453125 Z M 31.355469 225.453125" style="stroke:none;fill-rule:nonzero;fill:#d9d9d9;fill-opacity:1;"/><path d="M 32.839844 226.300781 C 33.570312 226.699219 34.324219 227.074219 35.074219 227.453125 L 35.074219 243.222656 C 34.324219 242.941406 33.59375 242.660156 32.839844 242.351562 C 32.34375 242.140625 31.828125 241.929688 31.332031 241.695312 C 30.839844 241.457031 30.320312 241.222656 29.828125 240.964844 C 25.636719 238.84375 21.777344 236.160156 18.363281 232.984375 L 18.363281 214.363281 C 21.636719 218.320312 25.496094 221.757812 29.828125 224.535156 C 30.320312 224.839844 30.816406 225.167969 31.332031 225.453125 C 31.851562 225.734375 32.34375 226.015625 32.839844 226.300781 Z M 32.839844 226.300781" style="stroke:none;fill-rule:nonzero;fill:#d9d9d9;fill-opacity:1;"/><path d="M 35.074219 186.941406 L 35.074219 223.804688 C 34.628906 223.570312 34.179688 223.308594 33.757812 223.050781 C 33.453125 222.863281 33.144531 222.699219 32.863281 222.507812 C 32.652344 222.390625 32.464844 222.25 32.273438 222.132812 C 31.96875 221.945312 31.664062 221.734375 31.378906 221.542969 C 30.863281 221.191406 30.367188 220.863281 29.875 220.484375 C 26.507812 218.039062 23.472656 215.164062 20.8125 211.941406 C 19.964844 210.929688 19.164062 209.871094 18.410156 208.785156 L 18.410156 186.941406 Z M 35.074219 186.941406" style="stroke:none;fill-rule:nonzero;fill:#d9d9d9;fill-opacity:1;"/><g clip-path="url(#9328b85519)" clip-rule="nonzero"><path d="M 34.652344 146.902344 L 44.304688 146.855469 L 47.316406 146.855469 L 63.980469 146.785156 L 66.996094 146.785156 L 76.761719 146.761719 L 55.648438 128.542969 Z M 34.652344 146.902344" style="stroke:none;fill-rule:nonzero;fill:#d9d9d9;fill-opacity:1;"/></g><g clip-path="url(#f829291adf)" clip-rule="nonzero"><path d="M 63.980469 239.175781 C 63.980469 240.375 63.699219 241.574219 63.109375 242.636719 C 62.191406 244.304688 60.496094 245.578125 58.027344 245.882812 C 56.261719 246.09375 54.472656 246.214844 52.636719 246.238281 C 52.589844 246.238281 52.566406 246.238281 52.519531 246.238281 C 51.503906 246.238281 50.515625 246.238281 49.527344 246.164062 C 48.773438 246.117188 48.046875 246.070312 47.292969 246 C 46.796875 245.953125 46.28125 245.90625 45.785156 245.835938 C 45.292969 245.765625 44.773438 245.695312 44.28125 245.625 C 42.160156 245.296875 40.066406 244.824219 38.042969 244.210938 C 37.03125 243.90625 36.039062 243.578125 35.050781 243.222656 C 34.300781 242.941406 33.570312 242.660156 32.816406 242.351562 C 32.320312 242.140625 31.804688 241.929688 31.308594 241.695312 C 30.816406 241.457031 30.296875 241.222656 29.804688 240.964844 C 25.613281 238.84375 21.753906 236.160156 18.339844 232.984375 C 8.757812 224.015625 2.664062 211.257812 2.570312 197.085938 C 2.523438 189.015625 4.40625 181.386719 7.769531 174.632812 C 7.488281 176.28125 7.300781 177.925781 7.183594 179.621094 C 7.113281 180.679688 7.089844 181.765625 7.089844 182.871094 C 7.089844 194.828125 11.324219 205.796875 18.386719 214.339844 C 21.660156 218.296875 25.519531 221.734375 29.851562 224.511719 C 30.34375 224.816406 30.839844 225.144531 31.355469 225.429688 C 31.851562 225.710938 32.34375 226.015625 32.863281 226.277344 C 33.59375 226.675781 34.347656 227.050781 35.097656 227.429688 C 36.089844 227.898438 37.078125 228.347656 38.089844 228.746094 C 40.113281 229.570312 42.183594 230.253906 44.328125 230.796875 C 44.820312 230.914062 45.316406 231.054688 45.832031 231.148438 C 46.328125 231.265625 46.820312 231.359375 47.339844 231.453125 C 48.070312 231.59375 48.824219 231.714844 49.574219 231.832031 C 50.5625 231.972656 51.554688 232.089844 52.566406 232.160156 C 53.90625 232.277344 55.25 232.324219 56.613281 232.324219 C 56.800781 232.324219 56.992188 232.324219 57.203125 232.324219 C 61.628906 232.300781 63.980469 235.738281 63.980469 239.175781 Z M 63.980469 239.175781" style="stroke:none;fill-rule:nonzero;fill:#ffffff;fill-opacity:1;"/></g><g style="fill:#ffffff;fill-opacity:1;"><g transform="translate(118.210667, 205.11243)"><path d="M 30.59375 -24.390625 C 30.59375 -22.304688 30.113281 -20.398438 29.15625 -18.671875 C 28.195312 -16.953125 26.726562 -15.5625 24.75 -14.5 C 22.769531 -13.445312 20.3125 -12.921875 17.375 -12.921875 L 11.9375 -12.921875 L 11.9375 0 L 3.171875 0 L 3.171875 -35.984375 L 17.375 -35.984375 C 20.238281 -35.984375 22.660156 -35.484375 24.640625 -34.484375 C 26.628906 -33.492188 28.117188 -32.128906 29.109375 -30.390625 C 30.097656 -28.648438 30.59375 -26.648438 30.59375 -24.390625 Z M 16.703125 -19.890625 C 18.378906 -19.890625 19.625 -20.28125 20.4375 -21.0625 C 21.257812 -21.851562 21.671875 -22.960938 21.671875 -24.390625 C 21.671875 -25.828125 21.257812 -26.9375 20.4375 -27.71875 C 19.625 -28.507812 18.378906 -28.90625 16.703125 -28.90625 L 11.9375 -28.90625 L 11.9375 -19.890625 Z M 16.703125 -19.890625" style="stroke:none"/></g></g><g style="fill:#ffffff;fill-opacity:1;"><g transform="translate(150.193483, 205.11243)"><path d="M 20.1875 0.359375 C 16.8125 0.359375 13.710938 -0.425781 10.890625 -2 C 8.066406 -3.570312 5.828125 -5.765625 4.171875 -8.578125 C 2.515625 -11.398438 1.6875 -14.570312 1.6875 -18.09375 C 1.6875 -21.613281 2.515625 -24.773438 4.171875 -27.578125 C 5.828125 -30.378906 8.066406 -32.5625 10.890625 -34.125 C 13.710938 -35.695312 16.8125 -36.484375 20.1875 -36.484375 C 23.570312 -36.484375 26.671875 -35.695312 29.484375 -34.125 C 32.304688 -32.5625 34.53125 -30.378906 36.15625 -27.578125 C 37.78125 -24.773438 38.59375 -21.613281 38.59375 -18.09375 C 38.59375 -14.570312 37.769531 -11.398438 36.125 -8.578125 C 34.488281 -5.765625 32.269531 -3.570312 29.46875 -2 C 26.664062 -0.425781 23.570312 0.359375 20.1875 0.359375 Z M 20.1875 -7.640625 C 23.0625 -7.640625 25.359375 -8.59375 27.078125 -10.5 C 28.804688 -12.414062 29.671875 -14.945312 29.671875 -18.09375 C 29.671875 -21.269531 28.804688 -23.804688 27.078125 -25.703125 C 25.359375 -27.597656 23.0625 -28.546875 20.1875 -28.546875 C 17.289062 -28.546875 14.976562 -27.601562 13.25 -25.71875 C 11.519531 -23.84375 10.65625 -21.300781 10.65625 -18.09375 C 10.65625 -14.914062 11.519531 -12.378906 13.25 -10.484375 C 14.976562 -8.585938 17.289062 -7.640625 20.1875 -7.640625 Z M 20.1875 -7.640625" style="stroke:none"/></g></g><g style="fill:#ffffff;fill-opacity:1;"><g transform="translate(190.479515, 205.11243)"><path d="M 16.1875 0.359375 C 13.5625 0.359375 11.207031 -0.0664062 9.125 -0.921875 C 7.039062 -1.773438 5.375 -3.035156 4.125 -4.703125 C 2.875 -6.378906 2.21875 -8.398438 2.15625 -10.765625 L 11.484375 -10.765625 C 11.617188 -9.429688 12.078125 -8.410156 12.859375 -7.703125 C 13.648438 -7.003906 14.675781 -6.65625 15.9375 -6.65625 C 17.238281 -6.65625 18.265625 -6.953125 19.015625 -7.546875 C 19.765625 -8.148438 20.140625 -8.984375 20.140625 -10.046875 C 20.140625 -10.929688 19.835938 -11.664062 19.234375 -12.25 C 18.640625 -12.832031 17.90625 -13.3125 17.03125 -13.6875 C 16.164062 -14.0625 14.929688 -14.488281 13.328125 -14.96875 C 11.003906 -15.6875 9.109375 -16.398438 7.640625 -17.109375 C 6.171875 -17.828125 4.90625 -18.882812 3.84375 -20.28125 C 2.78125 -21.6875 2.25 -23.519531 2.25 -25.78125 C 2.25 -29.125 3.460938 -31.742188 5.890625 -33.640625 C 8.316406 -35.535156 11.476562 -36.484375 15.375 -36.484375 C 19.332031 -36.484375 22.523438 -35.535156 24.953125 -33.640625 C 27.378906 -31.742188 28.679688 -29.109375 28.859375 -25.734375 L 19.375 -25.734375 C 19.300781 -26.890625 18.867188 -27.800781 18.078125 -28.46875 C 17.296875 -29.132812 16.289062 -29.46875 15.0625 -29.46875 C 14.007812 -29.46875 13.15625 -29.1875 12.5 -28.625 C 11.851562 -28.0625 11.53125 -27.25 11.53125 -26.1875 C 11.53125 -25.03125 12.078125 -24.125 13.171875 -23.46875 C 14.265625 -22.820312 15.972656 -22.125 18.296875 -21.375 C 20.617188 -20.582031 22.503906 -19.828125 23.953125 -19.109375 C 25.410156 -18.398438 26.664062 -17.359375 27.71875 -15.984375 C 28.78125 -14.617188 29.3125 -12.863281 29.3125 -10.71875 C 29.3125 -8.664062 28.789062 -6.800781 27.75 -5.125 C 26.707031 -3.445312 25.195312 -2.113281 23.21875 -1.125 C 21.238281 -0.132812 18.894531 0.359375 16.1875 0.359375 Z M 16.1875 0.359375" style="stroke:none"/></g></g><g style="fill:#ffffff;fill-opacity:1;"><g transform="translate(222.001027, 205.11243)"><path d="M 29.0625 -35.984375 L 29.0625 -28.953125 L 19.53125 -28.953125 L 19.53125 0 L 10.765625 0 L 10.765625 -28.953125 L 1.234375 -28.953125 L 1.234375 -35.984375 Z M 29.0625 -35.984375" style="stroke:none"/></g></g><g style="fill:#ffffff;fill-opacity:1;"><g transform="translate(252.292443, 205.11243)"><path d="M 24.953125 -18.453125 C 27.035156 -18.003906 28.707031 -16.96875 29.96875 -15.34375 C 31.238281 -13.726562 31.875 -11.875 31.875 -9.78125 C 31.875 -6.78125 30.820312 -4.398438 28.71875 -2.640625 C 26.625 -0.878906 23.695312 0 19.9375 0 L 3.171875 0 L 3.171875 -35.984375 L 19.375 -35.984375 C 23.03125 -35.984375 25.890625 -35.144531 27.953125 -33.46875 C 30.023438 -31.789062 31.0625 -29.519531 31.0625 -26.65625 C 31.0625 -24.53125 30.503906 -22.765625 29.390625 -21.359375 C 28.273438 -19.960938 26.796875 -18.992188 24.953125 -18.453125 Z M 11.9375 -21.421875 L 17.6875 -21.421875 C 19.113281 -21.421875 20.210938 -21.734375 20.984375 -22.359375 C 21.753906 -22.992188 22.140625 -23.925781 22.140625 -25.15625 C 22.140625 -26.394531 21.753906 -27.335938 20.984375 -27.984375 C 20.210938 -28.628906 19.113281 -28.953125 17.6875 -28.953125 L 11.9375 -28.953125 Z M 18.40625 -7.078125 C 19.875 -7.078125 21.007812 -7.410156 21.8125 -8.078125 C 22.613281 -8.742188 23.015625 -9.707031 23.015625 -10.96875 C 23.015625 -12.226562 22.59375 -13.21875 21.75 -13.9375 C 20.914062 -14.65625 19.765625 -15.015625 18.296875 -15.015625 L 11.9375 -15.015625 L 11.9375 -7.078125 Z M 18.40625 -7.078125" style="stroke:none"/></g></g><g style="fill:#ffffff;fill-opacity:1;"><g transform="translate(286.069155, 205.11243)"><path d="M 20.1875 0.359375 C 16.8125 0.359375 13.710938 -0.425781 10.890625 -2 C 8.066406 -3.570312 5.828125 -5.765625 4.171875 -8.578125 C 2.515625 -11.398438 1.6875 -14.570312 1.6875 -18.09375 C 1.6875 -21.613281 2.515625 -24.773438 4.171875 -27.578125 C 5.828125 -30.378906 8.066406 -32.5625 10.890625 -34.125 C 13.710938 -35.695312 16.8125 -36.484375 20.1875 -36.484375 C 23.570312 -36.484375 26.671875 -35.695312 29.484375 -34.125 C 32.304688 -32.5625 34.53125 -30.378906 36.15625 -27.578125 C 37.78125 -24.773438 38.59375 -21.613281 38.59375 -18.09375 C 38.59375 -14.570312 37.769531 -11.398438 36.125 -8.578125 C 34.488281 -5.765625 32.269531 -3.570312 29.46875 -2 C 26.664062 -0.425781 23.570312 0.359375 20.1875 0.359375 Z M 20.1875 -7.640625 C 23.0625 -7.640625 25.359375 -8.59375 27.078125 -10.5 C 28.804688 -12.414062 29.671875 -14.945312 29.671875 -18.09375 C 29.671875 -21.269531 28.804688 -23.804688 27.078125 -25.703125 C 25.359375 -27.597656 23.0625 -28.546875 20.1875 -28.546875 C 17.289062 -28.546875 14.976562 -27.601562 13.25 -25.71875 C 11.519531 -23.84375 10.65625 -21.300781 10.65625 -18.09375 C 10.65625 -14.914062 11.519531 -12.378906 13.25 -10.484375 C 14.976562 -8.585938 17.289062 -7.640625 20.1875 -7.640625 Z M 20.1875 -7.640625" style="stroke:none"/></g></g><g style="fill:#ffffff;fill-opacity:1;"><g transform="translate(326.355186, 205.11243)"><path d="M 29.0625 -35.984375 L 29.0625 -28.953125 L 19.53125 -28.953125 L 19.53125 0 L 10.765625 0 L 10.765625 -28.953125 L 1.234375 -28.953125 L 1.234375 -35.984375 Z M 29.0625 -35.984375" style="stroke:none"/></g></g></g></svg>